<mxfile host="drawio.skyreach.duckdns.org" agent="Mozilla/5.0 (Windows NT 10.0; Win64; x64; rv:135.0) Gecko/20100101 Firefox/135.0" version="26.0.9">
  <diagram id="mYwRD6F5yT-oYAHjkwRA" name="Page-1">
    <mxGraphModel dx="1662" dy="1020" grid="1" gridSize="10" guides="1" tooltips="1" connect="1" arrows="1" fold="1" page="1" pageScale="1" pageWidth="1920" pageHeight="1200" background="none" math="0" shadow="0">
      <root>
        <mxCell id="0" />
        <mxCell id="1" parent="0" />
        <mxCell id="hnJIqd8Gy56-IMKKV3Y0-77" value="" style="rounded=0;whiteSpace=wrap;html=1;fillColor=none;dashed=1;dashPattern=12 12;fontFamily=Computer Modern Serif;fontSource=https%3A%2F%2Fgithub.com%2FManza12%2FFonts%2Fblob%2Fmaster%2FSerif%2Fcmunrm.woff;fontSize=18;" parent="1" vertex="1">
          <mxGeometry x="400" y="135" width="520" height="750" as="geometry" />
        </mxCell>
        <mxCell id="Aebxqrfi05q1QoDKlTxX-26" value="" style="rounded=0;whiteSpace=wrap;html=1;fillColor=none;dashed=1;dashPattern=12 12;fontFamily=Computer Modern Serif;fontSource=https%3A%2F%2Fgithub.com%2FManza12%2FFonts%2Fblob%2Fmaster%2FSerif%2Fcmunrm.woff;fontSize=18;" vertex="1" parent="1">
          <mxGeometry x="420" y="495.5" width="200" height="370" as="geometry" />
        </mxCell>
        <mxCell id="hnJIqd8Gy56-IMKKV3Y0-78" value="" style="rounded=0;whiteSpace=wrap;html=1;fillColor=none;dashed=1;dashPattern=12 12;fontFamily=Computer Modern Serif;fontSource=https%3A%2F%2Fgithub.com%2FManza12%2FFonts%2Fblob%2Fmaster%2FSerif%2Fcmunrm.woff;fontSize=18;" parent="1" vertex="1">
          <mxGeometry x="1000" y="135" width="520" height="750" as="geometry" />
        </mxCell>
        <mxCell id="Aebxqrfi05q1QoDKlTxX-33" style="edgeStyle=orthogonalEdgeStyle;rounded=0;orthogonalLoop=1;jettySize=auto;html=1;exitX=0.5;exitY=1;exitDx=0;exitDy=0;exitPerimeter=0;entryX=0.5;entryY=0;entryDx=0;entryDy=0;" edge="1" parent="1" source="hnJIqd8Gy56-IMKKV3Y0-4" target="Aebxqrfi05q1QoDKlTxX-31">
          <mxGeometry relative="1" as="geometry" />
        </mxCell>
        <mxCell id="hnJIqd8Gy56-IMKKV3Y0-4" value="" style="verticalLabelPosition=bottom;html=1;verticalAlign=top;align=center;strokeColor=none;fillColor=#00BEF2;shape=mxgraph.azure.user;fontFamily=Computer Modern Serif;fontSource=https%3A%2F%2Fgithub.com%2FManza12%2FFonts%2Fblob%2Fmaster%2FSerif%2Fcmunrm.woff;whiteSpace=wrap;fontSize=18;" parent="1" vertex="1">
          <mxGeometry x="774.38" y="213" width="47.5" height="50" as="geometry" />
        </mxCell>
        <mxCell id="Aebxqrfi05q1QoDKlTxX-29" style="edgeStyle=orthogonalEdgeStyle;rounded=0;orthogonalLoop=1;jettySize=auto;html=1;exitX=0.5;exitY=1;exitDx=0;exitDy=0;exitPerimeter=0;entryX=0.5;entryY=0;entryDx=0;entryDy=0;" edge="1" parent="1" source="hnJIqd8Gy56-IMKKV3Y0-8" target="Aebxqrfi05q1QoDKlTxX-28">
          <mxGeometry relative="1" as="geometry" />
        </mxCell>
        <mxCell id="hnJIqd8Gy56-IMKKV3Y0-8" value="" style="verticalLabelPosition=bottom;html=1;verticalAlign=top;align=center;strokeColor=none;fillColor=#00BEF2;shape=mxgraph.azure.user;flipV=0;flipH=1;fontFamily=Computer Modern Serif;fontSource=https%3A%2F%2Fgithub.com%2FManza12%2FFonts%2Fblob%2Fmaster%2FSerif%2Fcmunrm.woff;whiteSpace=wrap;fontSize=18;" parent="1" vertex="1">
          <mxGeometry x="1095.25" y="213" width="47.5" height="50" as="geometry" />
        </mxCell>
        <mxCell id="hnJIqd8Gy56-IMKKV3Y0-18" value="Alice" style="text;html=1;align=center;verticalAlign=middle;whiteSpace=wrap;rounded=0;fontFamily=Computer Modern Serif;fontSource=https%3A%2F%2Fgithub.com%2FManza12%2FFonts%2Fblob%2Fmaster%2FSerif%2Fcmunrm.woff;fontSize=18;" parent="1" vertex="1">
          <mxGeometry x="714.38" y="233" width="60" height="30" as="geometry" />
        </mxCell>
        <mxCell id="hnJIqd8Gy56-IMKKV3Y0-20" value="Bob" style="text;html=1;align=center;verticalAlign=middle;whiteSpace=wrap;rounded=0;fontFamily=Computer Modern Serif;fontSource=https%3A%2F%2Fgithub.com%2FManza12%2FFonts%2Fblob%2Fmaster%2FSerif%2Fcmunrm.woff;fontSize=18;" parent="1" vertex="1">
          <mxGeometry x="1145.25" y="233" width="60" height="30" as="geometry" />
        </mxCell>
        <mxCell id="hnJIqd8Gy56-IMKKV3Y0-21" value="&lt;div&gt;Entangled Pair Generator&lt;/div&gt;Charlie" style="text;html=1;align=center;verticalAlign=middle;whiteSpace=wrap;rounded=0;fontFamily=Computer Modern Serif;fontSource=https%3A%2F%2Fgithub.com%2FManza12%2FFonts%2Fblob%2Fmaster%2FSerif%2Fcmunrm.woff;fontSize=18;" parent="1" vertex="1">
          <mxGeometry x="842.3199999999999" y="13" width="232.7" height="35" as="geometry" />
        </mxCell>
        <mxCell id="hnJIqd8Gy56-IMKKV3Y0-25" style="edgeStyle=orthogonalEdgeStyle;rounded=0;orthogonalLoop=1;jettySize=auto;html=1;exitX=1;exitY=0.5;exitDx=0;exitDy=0;entryX=0;entryY=0.5;entryDx=0;entryDy=0;shape=flexArrow;endArrow=block;startArrow=block;strokeColor=#000000;fontFamily=Computer Modern Serif;fontSource=https%3A%2F%2Fgithub.com%2FManza12%2FFonts%2Fblob%2Fmaster%2FSerif%2Fcmunrm.woff;fontSize=18;" parent="1" source="hnJIqd8Gy56-IMKKV3Y0-22" target="hnJIqd8Gy56-IMKKV3Y0-23" edge="1">
          <mxGeometry relative="1" as="geometry" />
        </mxCell>
        <mxCell id="hnJIqd8Gy56-IMKKV3Y0-31" style="edgeStyle=orthogonalEdgeStyle;rounded=0;orthogonalLoop=1;jettySize=auto;html=1;exitX=0.5;exitY=1;exitDx=0;exitDy=0;fontFamily=Computer Modern Serif;fontSource=https%3A%2F%2Fgithub.com%2FManza12%2FFonts%2Fblob%2Fmaster%2FSerif%2Fcmunrm.woff;fontSize=18;" parent="1" source="hnJIqd8Gy56-IMKKV3Y0-22" target="hnJIqd8Gy56-IMKKV3Y0-27" edge="1">
          <mxGeometry relative="1" as="geometry" />
        </mxCell>
        <mxCell id="hnJIqd8Gy56-IMKKV3Y0-22" value="Initial&lt;div&gt;Key&lt;/div&gt;" style="rounded=0;whiteSpace=wrap;html=1;fillColor=#f5f5f5;fontColor=#333333;strokeColor=#666666;fontFamily=Computer Modern Serif;fontSource=https%3A%2F%2Fgithub.com%2FManza12%2FFonts%2Fblob%2Fmaster%2FSerif%2Fcmunrm.woff;fontSize=18;" parent="1" vertex="1">
          <mxGeometry x="738.13" y="440" width="120" height="60" as="geometry" />
        </mxCell>
        <mxCell id="hnJIqd8Gy56-IMKKV3Y0-32" style="edgeStyle=orthogonalEdgeStyle;rounded=0;orthogonalLoop=1;jettySize=auto;html=1;exitX=0.5;exitY=1;exitDx=0;exitDy=0;entryX=0.5;entryY=0;entryDx=0;entryDy=0;fontFamily=Computer Modern Serif;fontSource=https%3A%2F%2Fgithub.com%2FManza12%2FFonts%2Fblob%2Fmaster%2FSerif%2Fcmunrm.woff;fontSize=18;" parent="1" source="hnJIqd8Gy56-IMKKV3Y0-23" target="hnJIqd8Gy56-IMKKV3Y0-28" edge="1">
          <mxGeometry relative="1" as="geometry" />
        </mxCell>
        <mxCell id="hnJIqd8Gy56-IMKKV3Y0-23" value="Initial&lt;div&gt;Key&lt;/div&gt;" style="rounded=0;whiteSpace=wrap;html=1;fillColor=#f5f5f5;fontColor=#333333;strokeColor=#666666;fontFamily=Computer Modern Serif;fontSource=https%3A%2F%2Fgithub.com%2FManza12%2FFonts%2Fblob%2Fmaster%2FSerif%2Fcmunrm.woff;fontSize=18;" parent="1" vertex="1">
          <mxGeometry x="1059" y="440" width="120" height="60" as="geometry" />
        </mxCell>
        <mxCell id="hnJIqd8Gy56-IMKKV3Y0-26" value="Classical Channel" style="text;html=1;align=center;verticalAlign=middle;whiteSpace=wrap;rounded=0;fontFamily=Computer Modern Serif;fontSource=https%3A%2F%2Fgithub.com%2FManza12%2FFonts%2Fblob%2Fmaster%2FSerif%2Fcmunrm.woff;fontSize=18;aspect=fixed;" parent="1" vertex="1">
          <mxGeometry x="918.67" y="420" width="80" height="40" as="geometry" />
        </mxCell>
        <mxCell id="hnJIqd8Gy56-IMKKV3Y0-38" style="edgeStyle=orthogonalEdgeStyle;rounded=0;orthogonalLoop=1;jettySize=auto;html=1;exitX=0.5;exitY=1;exitDx=0;exitDy=0;entryX=0.5;entryY=0;entryDx=0;entryDy=0;fontFamily=Computer Modern Serif;fontSource=https%3A%2F%2Fgithub.com%2FManza12%2FFonts%2Fblob%2Fmaster%2FSerif%2Fcmunrm.woff;fontSize=18;" parent="1" source="hnJIqd8Gy56-IMKKV3Y0-27" target="hnJIqd8Gy56-IMKKV3Y0-35" edge="1">
          <mxGeometry relative="1" as="geometry" />
        </mxCell>
        <mxCell id="hnJIqd8Gy56-IMKKV3Y0-27" value="" style="image;aspect=fixed;perimeter=ellipsePerimeter;html=1;align=center;shadow=0;dashed=0;spacingTop=3;image=img/lib/active_directory/key.svg;fontFamily=Computer Modern Serif;fontSource=https%3A%2F%2Fgithub.com%2FManza12%2FFonts%2Fblob%2Fmaster%2FSerif%2Fcmunrm.woff;whiteSpace=wrap;fontSize=18;" parent="1" vertex="1">
          <mxGeometry x="773.13" y="560" width="50" height="37" as="geometry" />
        </mxCell>
        <mxCell id="Aebxqrfi05q1QoDKlTxX-6" style="edgeStyle=orthogonalEdgeStyle;rounded=0;orthogonalLoop=1;jettySize=auto;html=1;exitX=0.5;exitY=1;exitDx=0;exitDy=0;entryX=0.5;entryY=0;entryDx=0;entryDy=0;" edge="1" parent="1" source="hnJIqd8Gy56-IMKKV3Y0-28" target="Aebxqrfi05q1QoDKlTxX-5">
          <mxGeometry relative="1" as="geometry" />
        </mxCell>
        <mxCell id="hnJIqd8Gy56-IMKKV3Y0-28" value="" style="image;aspect=fixed;perimeter=ellipsePerimeter;html=1;align=center;shadow=0;dashed=0;spacingTop=3;image=img/lib/active_directory/key.svg;fontFamily=Computer Modern Serif;fontSource=https%3A%2F%2Fgithub.com%2FManza12%2FFonts%2Fblob%2Fmaster%2FSerif%2Fcmunrm.woff;whiteSpace=wrap;fontSize=18;" parent="1" vertex="1">
          <mxGeometry x="1094" y="556.5" width="50" height="37" as="geometry" />
        </mxCell>
        <mxCell id="hnJIqd8Gy56-IMKKV3Y0-33" value="Final Ekert Key" style="text;html=1;align=center;verticalAlign=middle;whiteSpace=wrap;rounded=0;fontFamily=Computer Modern Serif;fontSource=https%3A%2F%2Fgithub.com%2FManza12%2FFonts%2Fblob%2Fmaster%2FSerif%2Fcmunrm.woff;fontSize=18;aspect=fixed;" parent="1" vertex="1">
          <mxGeometry x="658.13" y="542.5" width="100" height="50" as="geometry" />
        </mxCell>
        <mxCell id="hnJIqd8Gy56-IMKKV3Y0-34" value="Final Ekert Key" style="text;html=1;align=center;verticalAlign=middle;whiteSpace=wrap;rounded=0;fontFamily=Computer Modern Serif;fontSource=https%3A%2F%2Fgithub.com%2FManza12%2FFonts%2Fblob%2Fmaster%2FSerif%2Fcmunrm.woff;fontSize=18;aspect=fixed;" parent="1" vertex="1">
          <mxGeometry x="1161" y="542.5" width="100" height="50" as="geometry" />
        </mxCell>
        <mxCell id="Aebxqrfi05q1QoDKlTxX-7" style="edgeStyle=orthogonalEdgeStyle;rounded=0;orthogonalLoop=1;jettySize=auto;html=1;exitX=0.5;exitY=1;exitDx=0;exitDy=0;entryX=0.5;entryY=0;entryDx=0;entryDy=0;" edge="1" parent="1" source="hnJIqd8Gy56-IMKKV3Y0-35" target="hnJIqd8Gy56-IMKKV3Y0-52">
          <mxGeometry relative="1" as="geometry" />
        </mxCell>
        <mxCell id="hnJIqd8Gy56-IMKKV3Y0-35" value="&lt;div&gt;SHA-3 256&lt;/div&gt;&lt;div&gt;Hash&lt;/div&gt;&lt;div&gt;Function&lt;/div&gt;" style="rounded=0;whiteSpace=wrap;html=1;fillColor=#f8cecc;strokeColor=#b85450;fontFamily=Computer Modern Serif;fontSource=https%3A%2F%2Fgithub.com%2FManza12%2FFonts%2Fblob%2Fmaster%2FSerif%2Fcmunrm.woff;fontSize=18;aspect=fixed;" parent="1" vertex="1">
          <mxGeometry x="733.13" y="660" width="130" height="65" as="geometry" />
        </mxCell>
        <mxCell id="hnJIqd8Gy56-IMKKV3Y0-41" value="Quantum Channel" style="text;html=1;align=center;verticalAlign=middle;whiteSpace=wrap;rounded=0;fontFamily=Computer Modern Serif;fontSource=https%3A%2F%2Fgithub.com%2FManza12%2FFonts%2Fblob%2Fmaster%2FSerif%2Fcmunrm.woff;fontSize=18;" parent="1" vertex="1">
          <mxGeometry x="1123" y="150" width="114.5" height="30" as="geometry" />
        </mxCell>
        <mxCell id="hnJIqd8Gy56-IMKKV3Y0-42" value="Quantum Channel" style="text;html=1;align=center;verticalAlign=middle;whiteSpace=wrap;rounded=0;fontFamily=Computer Modern Serif;fontSource=https%3A%2F%2Fgithub.com%2FManza12%2FFonts%2Fblob%2Fmaster%2FSerif%2Fcmunrm.woff;fontSize=18;" parent="1" vertex="1">
          <mxGeometry x="678.13" y="150" width="114.5" height="30" as="geometry" />
        </mxCell>
        <mxCell id="hnJIqd8Gy56-IMKKV3Y0-67" style="edgeStyle=orthogonalEdgeStyle;rounded=0;orthogonalLoop=1;jettySize=auto;html=1;exitX=0.5;exitY=1;exitDx=0;exitDy=0;entryX=0.5;entryY=0;entryDx=0;entryDy=0;fontFamily=Computer Modern Serif;fontSource=https%3A%2F%2Fgithub.com%2FManza12%2FFonts%2Fblob%2Fmaster%2FSerif%2Fcmunrm.woff;fontSize=18;" parent="1" source="hnJIqd8Gy56-IMKKV3Y0-52" target="hnJIqd8Gy56-IMKKV3Y0-63" edge="1">
          <mxGeometry relative="1" as="geometry" />
        </mxCell>
        <mxCell id="hnJIqd8Gy56-IMKKV3Y0-52" value="&lt;div&gt;ChaCha20-Poly1305&lt;/div&gt;AEAD" style="rounded=0;html=1;fillColor=#99FFCC;fontColor=#000000;strokeColor=#005700;fontFamily=Computer Modern Serif;fontSource=https%3A%2F%2Fgithub.com%2FManza12%2FFonts%2Fblob%2Fmaster%2FSerif%2Fcmunrm.woff;fontSize=18;whiteSpace=wrap;aspect=fixed;" parent="1" vertex="1">
          <mxGeometry x="733.13" y="800" width="130" height="70.42" as="geometry" />
        </mxCell>
        <mxCell id="Aebxqrfi05q1QoDKlTxX-14" style="edgeStyle=orthogonalEdgeStyle;rounded=0;orthogonalLoop=1;jettySize=auto;html=1;exitX=1;exitY=0.5;exitDx=0;exitDy=0;entryX=0;entryY=0.5;entryDx=0;entryDy=0;" edge="1" parent="1" source="hnJIqd8Gy56-IMKKV3Y0-55" target="hnJIqd8Gy56-IMKKV3Y0-58">
          <mxGeometry relative="1" as="geometry" />
        </mxCell>
        <mxCell id="hnJIqd8Gy56-IMKKV3Y0-55" value="&lt;div&gt;&lt;font&gt;ChaCha20-Poly1305&lt;/font&gt;&lt;/div&gt;&lt;font&gt;AEAD&lt;/font&gt;" style="rounded=0;whiteSpace=wrap;html=1;fillColor=#99FFCC;fontColor=#000000;strokeColor=#005700;fontFamily=Computer Modern Serif;fontSource=https%3A%2F%2Fgithub.com%2FManza12%2FFonts%2Fblob%2Fmaster%2FSerif%2Fcmunrm.woff;fontSize=18;aspect=fixed;" parent="1" vertex="1">
          <mxGeometry x="1054" y="800" width="130" height="70.42" as="geometry" />
        </mxCell>
        <mxCell id="hnJIqd8Gy56-IMKKV3Y0-68" style="edgeStyle=orthogonalEdgeStyle;rounded=0;orthogonalLoop=1;jettySize=auto;html=1;exitX=1;exitY=0.5;exitDx=0;exitDy=0;entryX=0;entryY=0.5;entryDx=0;entryDy=0;shape=flexArrow;startArrow=block;fontFamily=Computer Modern Serif;fontSource=https%3A%2F%2Fgithub.com%2FManza12%2FFonts%2Fblob%2Fmaster%2FSerif%2Fcmunrm.woff;fontSize=18;" parent="1" source="hnJIqd8Gy56-IMKKV3Y0-63" target="hnJIqd8Gy56-IMKKV3Y0-64" edge="1">
          <mxGeometry relative="1" as="geometry" />
        </mxCell>
        <mxCell id="hnJIqd8Gy56-IMKKV3Y0-63" value="&lt;div&gt;Encrypted Audio +&lt;/div&gt;&lt;div&gt;MAC&lt;/div&gt;" style="rounded=0;whiteSpace=wrap;html=1;fillColor=#6a00ff;fontColor=#ffffff;strokeColor=#3700CC;fontFamily=Computer Modern Serif;fontSource=https%3A%2F%2Fgithub.com%2FManza12%2FFonts%2Fblob%2Fmaster%2FSerif%2Fcmunrm.woff;fontSize=18;" parent="1" vertex="1">
          <mxGeometry x="735.63" y="940" width="125" height="65" as="geometry" />
        </mxCell>
        <mxCell id="hnJIqd8Gy56-IMKKV3Y0-66" style="edgeStyle=orthogonalEdgeStyle;rounded=0;orthogonalLoop=1;jettySize=auto;html=1;exitX=0.5;exitY=0;exitDx=0;exitDy=0;entryX=0.5;entryY=1;entryDx=0;entryDy=0;fontFamily=Computer Modern Serif;fontSource=https%3A%2F%2Fgithub.com%2FManza12%2FFonts%2Fblob%2Fmaster%2FSerif%2Fcmunrm.woff;fontSize=18;" parent="1" source="hnJIqd8Gy56-IMKKV3Y0-64" target="hnJIqd8Gy56-IMKKV3Y0-55" edge="1">
          <mxGeometry relative="1" as="geometry" />
        </mxCell>
        <mxCell id="hnJIqd8Gy56-IMKKV3Y0-64" value="&lt;div&gt;Encrypted Audio +&lt;/div&gt;&lt;div&gt;MAC&lt;/div&gt;" style="rounded=0;whiteSpace=wrap;html=1;fillColor=#6a00ff;fontColor=#ffffff;strokeColor=#3700CC;fontFamily=Computer Modern Serif;fontSource=https%3A%2F%2Fgithub.com%2FManza12%2FFonts%2Fblob%2Fmaster%2FSerif%2Fcmunrm.woff;fontSize=18;" parent="1" vertex="1">
          <mxGeometry x="1056.5" y="940" width="125" height="65" as="geometry" />
        </mxCell>
        <mxCell id="hnJIqd8Gy56-IMKKV3Y0-69" value="Classical Channel" style="text;html=1;align=center;verticalAlign=middle;whiteSpace=wrap;rounded=0;fontFamily=Computer Modern Serif;fontSource=https%3A%2F%2Fgithub.com%2FManza12%2FFonts%2Fblob%2Fmaster%2FSerif%2Fcmunrm.woff;fontSize=18;aspect=fixed;" parent="1" vertex="1">
          <mxGeometry x="918.67" y="920" width="80" height="40" as="geometry" />
        </mxCell>
        <mxCell id="hnJIqd8Gy56-IMKKV3Y0-81" value="Alice&#39;s Encryption Scheme" style="text;html=1;align=center;verticalAlign=middle;whiteSpace=wrap;rounded=0;fontFamily=Computer Modern Serif;fontSource=https%3A%2F%2Fgithub.com%2FManza12%2FFonts%2Fblob%2Fmaster%2FSerif%2Fcmunrm.woff;fontSize=24;aspect=fixed;" parent="1" vertex="1">
          <mxGeometry x="420" y="195.5" width="200" height="105" as="geometry" />
        </mxCell>
        <mxCell id="hnJIqd8Gy56-IMKKV3Y0-82" value="Bob&#39;s Decryption Scheme" style="text;html=1;align=center;verticalAlign=middle;whiteSpace=wrap;rounded=0;fontFamily=Computer Modern Serif;fontSource=https%3A%2F%2Fgithub.com%2FManza12%2FFonts%2Fblob%2Fmaster%2FSerif%2Fcmunrm.woff;fontSize=24;" parent="1" vertex="1">
          <mxGeometry x="1300" y="195.5" width="200" height="105" as="geometry" />
        </mxCell>
        <mxCell id="hnJIqd8Gy56-IMKKV3Y0-1" value="" style="outlineConnect=0;dashed=0;verticalLabelPosition=bottom;verticalAlign=top;align=center;html=1;shape=mxgraph.aws3.traditional_server;fillColor=#7D7C7C;gradientColor=none;strokeColor=default;fontFamily=Computer Modern Serif;fontSource=https%3A%2F%2Fgithub.com%2FManza12%2FFonts%2Fblob%2Fmaster%2FSerif%2Fcmunrm.woff;whiteSpace=wrap;fontSize=18;strokeWidth=1;" parent="1" vertex="1">
          <mxGeometry x="935.42" y="60" width="46.5" height="63" as="geometry" />
        </mxCell>
        <mxCell id="oi1CXZGhf1AeuUle20z2-1" style="rounded=0;orthogonalLoop=1;jettySize=auto;html=1;exitX=0;exitY=0.5;exitDx=0;exitDy=0;exitPerimeter=0;entryX=0.5;entryY=0;entryDx=0;entryDy=0;entryPerimeter=0;shape=flexArrow;strokeColor=#7D7C7C;startArrow=none;startFill=0;edgeStyle=orthogonalEdgeStyle;elbow=vertical;endSize=6;sourcePerimeterSpacing=0;targetPerimeterSpacing=0;flowAnimation=0;shadow=0;fontSize=18;" parent="1" source="hnJIqd8Gy56-IMKKV3Y0-1" target="hnJIqd8Gy56-IMKKV3Y0-4" edge="1">
          <mxGeometry relative="1" as="geometry" />
        </mxCell>
        <mxCell id="oi1CXZGhf1AeuUle20z2-2" style="edgeStyle=orthogonalEdgeStyle;rounded=0;orthogonalLoop=1;jettySize=auto;html=1;entryX=0.5;entryY=0;entryDx=0;entryDy=0;entryPerimeter=0;shape=flexArrow;strokeColor=#7D7C7C;fontSize=18;" parent="1" source="hnJIqd8Gy56-IMKKV3Y0-1" target="hnJIqd8Gy56-IMKKV3Y0-8" edge="1">
          <mxGeometry relative="1" as="geometry" />
        </mxCell>
        <mxCell id="Aebxqrfi05q1QoDKlTxX-8" style="edgeStyle=orthogonalEdgeStyle;rounded=0;orthogonalLoop=1;jettySize=auto;html=1;exitX=0.5;exitY=1;exitDx=0;exitDy=0;entryX=0.5;entryY=0;entryDx=0;entryDy=0;" edge="1" parent="1" source="Aebxqrfi05q1QoDKlTxX-5" target="hnJIqd8Gy56-IMKKV3Y0-55">
          <mxGeometry relative="1" as="geometry" />
        </mxCell>
        <mxCell id="Aebxqrfi05q1QoDKlTxX-5" value="&lt;div&gt;SHA-3 256&lt;/div&gt;&lt;div&gt;Hash&lt;/div&gt;&lt;div&gt;Function&lt;/div&gt;" style="rounded=0;whiteSpace=wrap;html=1;fillColor=#f8cecc;strokeColor=#b85450;fontFamily=Computer Modern Serif;fontSource=https%3A%2F%2Fgithub.com%2FManza12%2FFonts%2Fblob%2Fmaster%2FSerif%2Fcmunrm.woff;fontSize=18;aspect=fixed;" vertex="1" parent="1">
          <mxGeometry x="1054" y="660" width="130" height="65" as="geometry" />
        </mxCell>
        <mxCell id="Aebxqrfi05q1QoDKlTxX-12" style="edgeStyle=orthogonalEdgeStyle;rounded=0;orthogonalLoop=1;jettySize=auto;html=1;exitX=1;exitY=0.5;exitDx=0;exitDy=0;entryX=0;entryY=0.5;entryDx=0;entryDy=0;" edge="1" parent="1" source="hnJIqd8Gy56-IMKKV3Y0-57" target="hnJIqd8Gy56-IMKKV3Y0-52">
          <mxGeometry relative="1" as="geometry" />
        </mxCell>
        <mxCell id="oi1CXZGhf1AeuUle20z2-3" value="&lt;div&gt;Steganographic&lt;/div&gt;Extraction" style="text;html=1;align=center;verticalAlign=middle;whiteSpace=wrap;rounded=0;fontFamily=Computer Modern Serif;fontSource=https%3A%2F%2Fgithub.com%2FManza12%2FFonts%2Fblob%2Fmaster%2FSerif%2Fcmunrm.woff;fontSize=22;aspect=fixed;" parent="1" vertex="1">
          <mxGeometry x="1314.77" y="443" width="170.47" height="45" as="geometry" />
        </mxCell>
        <mxCell id="hnJIqd8Gy56-IMKKV3Y0-80" value="" style="rounded=0;whiteSpace=wrap;html=1;fillColor=none;dashed=1;dashPattern=12 12;fontFamily=Computer Modern Serif;fontSource=https%3A%2F%2Fgithub.com%2FManza12%2FFonts%2Fblob%2Fmaster%2FSerif%2Fcmunrm.woff;fontSize=18;" parent="1" vertex="1">
          <mxGeometry x="1300" y="495.5" width="200" height="370" as="geometry" />
        </mxCell>
        <mxCell id="hnJIqd8Gy56-IMKKV3Y0-58" value="Stego Signal" style="rounded=0;whiteSpace=wrap;html=1;fillColor=#6d8764;fontColor=#ffffff;strokeColor=#3A5431;fontFamily=Computer Modern Serif;fontSource=https%3A%2F%2Fgithub.com%2FManza12%2FFonts%2Fblob%2Fmaster%2FSerif%2Fcmunrm.woff;fontSize=18;" parent="1" vertex="1">
          <mxGeometry x="1340.01" y="646" width="120" height="60" as="geometry" />
        </mxCell>
        <mxCell id="hnJIqd8Gy56-IMKKV3Y0-74" value="Secret Audio" style="rounded=0;whiteSpace=wrap;html=1;fillColor=#1ba1e2;fontColor=#ffffff;strokeColor=#006EAF;fontFamily=Computer Modern Serif;fontSource=https%3A%2F%2Fgithub.com%2FManza12%2FFonts%2Fblob%2Fmaster%2FSerif%2Fcmunrm.woff;fontSize=18;" parent="1" vertex="1">
          <mxGeometry x="1340.01" y="766" width="120" height="60" as="geometry" />
        </mxCell>
        <mxCell id="hnJIqd8Gy56-IMKKV3Y0-76" style="edgeStyle=orthogonalEdgeStyle;rounded=0;orthogonalLoop=1;jettySize=auto;html=1;exitX=0.5;exitY=1;exitDx=0;exitDy=0;entryX=0.5;entryY=0;entryDx=0;entryDy=0;fontFamily=Computer Modern Serif;fontSource=https%3A%2F%2Fgithub.com%2FManza12%2FFonts%2Fblob%2Fmaster%2FSerif%2Fcmunrm.woff;fontSize=18;" parent="1" source="hnJIqd8Gy56-IMKKV3Y0-58" target="hnJIqd8Gy56-IMKKV3Y0-74" edge="1">
          <mxGeometry relative="1" as="geometry" />
        </mxCell>
        <mxCell id="hnJIqd8Gy56-IMKKV3Y0-57" value="Stego Signal" style="rounded=0;whiteSpace=wrap;html=1;fillColor=#6d8764;fontColor=#ffffff;strokeColor=#3A5431;fontFamily=Computer Modern Serif;fontSource=https%3A%2F%2Fgithub.com%2FManza12%2FFonts%2Fblob%2Fmaster%2FSerif%2Fcmunrm.woff;fontSize=18;" parent="1" vertex="1">
          <mxGeometry x="460" y="662.5028323699422" width="120" height="60" as="geometry" />
        </mxCell>
        <mxCell id="hnJIqd8Gy56-IMKKV3Y0-70" value="Cover Audio" style="rounded=0;whiteSpace=wrap;html=1;fillColor=#e51400;fontColor=#FFFFFF;strokeColor=#B20000;fontFamily=Computer Modern Serif;fontSource=https%3A%2F%2Fgithub.com%2FManza12%2FFonts%2Fblob%2Fmaster%2FSerif%2Fcmunrm.woff;fontSize=18;" parent="1" vertex="1">
          <mxGeometry x="460" y="544.9965895953757" width="120" height="60" as="geometry" />
        </mxCell>
        <mxCell id="hnJIqd8Gy56-IMKKV3Y0-71" value="Secret Audio" style="rounded=0;whiteSpace=wrap;html=1;fillColor=#1ba1e2;fontColor=#ffffff;strokeColor=#006EAF;fontFamily=Computer Modern Serif;fontSource=https%3A%2F%2Fgithub.com%2FManza12%2FFonts%2Fblob%2Fmaster%2FSerif%2Fcmunrm.woff;fontSize=18;" parent="1" vertex="1">
          <mxGeometry x="460" y="770.4990751445087" width="120" height="60" as="geometry" />
        </mxCell>
        <mxCell id="hnJIqd8Gy56-IMKKV3Y0-83" value="&lt;div&gt;Steganographic&lt;/div&gt;Embedding" style="text;html=1;align=center;verticalAlign=middle;whiteSpace=wrap;rounded=0;fontFamily=Computer Modern Serif;fontSource=https%3A%2F%2Fgithub.com%2FManza12%2FFonts%2Fblob%2Fmaster%2FSerif%2Fcmunrm.woff;fontSize=22;aspect=fixed;" parent="1" vertex="1">
          <mxGeometry x="446.09999999999997" y="442.99242774566477" width="147.8063583815029" height="39.017341040462426" as="geometry" />
        </mxCell>
        <mxCell id="hnJIqd8Gy56-IMKKV3Y0-73" style="edgeStyle=orthogonalEdgeStyle;rounded=0;orthogonalLoop=1;jettySize=auto;html=1;exitX=0.5;exitY=1;exitDx=0;exitDy=0;entryX=0.5;entryY=0;entryDx=0;entryDy=0;fontFamily=Computer Modern Serif;fontSource=https%3A%2F%2Fgithub.com%2FManza12%2FFonts%2Fblob%2Fmaster%2FSerif%2Fcmunrm.woff;fontSize=18;" parent="1" source="hnJIqd8Gy56-IMKKV3Y0-70" target="hnJIqd8Gy56-IMKKV3Y0-57" edge="1">
          <mxGeometry relative="1" as="geometry" />
        </mxCell>
        <mxCell id="hnJIqd8Gy56-IMKKV3Y0-72" style="edgeStyle=orthogonalEdgeStyle;rounded=0;orthogonalLoop=1;jettySize=auto;html=1;exitX=0.5;exitY=0;exitDx=0;exitDy=0;entryX=0.5;entryY=1;entryDx=0;entryDy=0;fontFamily=Computer Modern Serif;fontSource=https%3A%2F%2Fgithub.com%2FManza12%2FFonts%2Fblob%2Fmaster%2FSerif%2Fcmunrm.woff;fontSize=18;" parent="1" source="hnJIqd8Gy56-IMKKV3Y0-71" target="hnJIqd8Gy56-IMKKV3Y0-57" edge="1">
          <mxGeometry relative="1" as="geometry" />
        </mxCell>
        <mxCell id="Aebxqrfi05q1QoDKlTxX-30" style="edgeStyle=orthogonalEdgeStyle;rounded=0;orthogonalLoop=1;jettySize=auto;html=1;exitX=0.5;exitY=1;exitDx=0;exitDy=0;entryX=0.5;entryY=0;entryDx=0;entryDy=0;" edge="1" parent="1" source="Aebxqrfi05q1QoDKlTxX-28" target="hnJIqd8Gy56-IMKKV3Y0-23">
          <mxGeometry relative="1" as="geometry" />
        </mxCell>
        <mxCell id="Aebxqrfi05q1QoDKlTxX-28" value="&lt;div align=&quot;center&quot;&gt;&lt;font data-font-src=&quot;https://github.com/Manza12/Fonts/blob/master/Serif/cmunrm.woff&quot; face=&quot;Computer Modern Serif&quot; style=&quot;font-size: 18px;&quot;&gt;Measurement&lt;/font&gt;&lt;/div&gt;&lt;div align=&quot;center&quot;&gt;&lt;font data-font-src=&quot;https://github.com/Manza12/Fonts/blob/master/Serif/cmunrm.woff&quot; face=&quot;Computer Modern Serif&quot; style=&quot;font-size: 18px;&quot;&gt;Device&lt;/font&gt;&lt;/div&gt;&lt;div align=&quot;center&quot;&gt;&lt;br&gt;&lt;/div&gt;" style="rounded=0;whiteSpace=wrap;html=1;align=center;fillColor=#AFFFAF;verticalAlign=top;strokeColor=#82b366;" vertex="1" parent="1">
          <mxGeometry x="1059" y="320" width="120" height="60" as="geometry" />
        </mxCell>
        <mxCell id="Aebxqrfi05q1QoDKlTxX-32" style="edgeStyle=orthogonalEdgeStyle;rounded=0;orthogonalLoop=1;jettySize=auto;html=1;exitX=0.5;exitY=1;exitDx=0;exitDy=0;entryX=0.5;entryY=0;entryDx=0;entryDy=0;" edge="1" parent="1" source="Aebxqrfi05q1QoDKlTxX-31" target="hnJIqd8Gy56-IMKKV3Y0-22">
          <mxGeometry relative="1" as="geometry" />
        </mxCell>
        <mxCell id="Aebxqrfi05q1QoDKlTxX-31" value="&lt;div align=&quot;center&quot;&gt;&lt;font data-font-src=&quot;https://github.com/Manza12/Fonts/blob/master/Serif/cmunrm.woff&quot; face=&quot;Computer Modern Serif&quot; style=&quot;font-size: 18px;&quot;&gt;Measurement&lt;/font&gt;&lt;/div&gt;&lt;div align=&quot;center&quot;&gt;&lt;font data-font-src=&quot;https://github.com/Manza12/Fonts/blob/master/Serif/cmunrm.woff&quot; face=&quot;Computer Modern Serif&quot; style=&quot;font-size: 18px;&quot;&gt;Device&lt;/font&gt;&lt;/div&gt;&lt;div align=&quot;center&quot;&gt;&lt;br&gt;&lt;/div&gt;" style="rounded=0;whiteSpace=wrap;html=1;align=center;fillColor=#AFFFAF;verticalAlign=top;strokeColor=#82b366;" vertex="1" parent="1">
          <mxGeometry x="738.13" y="320" width="120" height="60" as="geometry" />
        </mxCell>
      </root>
    </mxGraphModel>
  </diagram>
</mxfile>
